PathFileType	4	(X/Y/Z)	C:\Documents and Settings\mvidt\Desktop\Forward_reach_ACS_12-5-11\acs_forward8.trc
DataRate	CameraRate	NumFrames	NumMarkers	Units	OrigDataRate	OrigDataStartFrame	OrigNumFrames
200.00	200.00	      24	10	mm	200.00	251	      1000
Frame#	Time	R.Clavicle			C7			R.Shoulder			R.Bicep			R.Elbow.Lateral			R.Forearm			R.Radius			Handle			R.Elbow.Medial			R.Ulna			
		X1	Y1	Z1	X2	Y2	Z2	X3	Y3	Z3	X4	Y4	Z4	X5	Y5	Z5	X6	Y6	Z6	X7	Y7	Z7	X8	Y8	Z8	X9	Y9	Z9	X10	Y10	Z10	

251	1.250	-383.42087	342.60019	309.65186				-429.24756	168.87845	324.54141	-299.61365	128.74826	184.99773	-271.33319	73.32930	85.19064	-188.41846	97.10571	157.86821	-48.24022	128.19809	223.86398	55.97160	135.25784	301.03864	-258.33475	156.96962	50.00760	-25.75527	68.04681	167.43739	
252	1.255	-383.42087	342.60019	309.65186				-427.76028	169.23969	323.13458	-301.12396	127.46767	186.62471	-269.98984	73.60776	86.65885	-186.58162	96.93029	158.21645	-47.14413	127.41797	224.49365	57.59786	135.44501	301.07672	-255.41127	159.65759	49.94897	-23.86334	68.71687	167.19095	
253	1.260	-383.42087	342.60019	309.65186				-427.76028	169.23969	323.13458	-299.07123	128.24144	186.88742	-268.68338	73.73074	87.68184	-184.43002	98.08927	158.94725	-45.32198	127.53560	224.30766	60.63542	135.73627	301.48615	-254.13315	159.46730	51.14274	-22.12120	69.18645	167.35100	
254	1.265	-383.42087	342.60019	309.65186				-427.76028	169.23969	323.13458	-298.69989	129.02623	188.62938	-267.37695	73.85374	88.70483	-183.19647	97.35419	159.71106	-42.31610	128.98967	225.76038	62.11568	135.67188	301.49722	-252.86172	159.27922	52.34317	-19.41580	69.09194	168.29677	
255	1.270	-383.42087	342.60019	309.65186				-427.76028	169.23969	323.13458	-297.82535	129.27969	189.10870	-266.07050	73.97672	89.72781	-181.27654	99.12756	160.35994	-41.00673	128.77339	226.27750	64.63639	135.78566	301.40128	-251.59706	159.09338	53.55017	-18.47828	68.16749	168.95580	
256	1.275	-383.42087	342.60019	309.65186				-428.46140	169.41490	322.62692	-297.14993	129.02377	189.97302	-264.76404	74.09971	90.75080	-179.68628	98.02950	161.82677	-38.56415	128.70105	226.79613	66.74379	135.68530	301.29590	-249.90845	158.86292	55.02287	-16.56603	70.59797	167.84312	
257	1.280	-383.42087	342.60019	309.65186				-427.86026	169.27989	322.69012	-296.91266	129.69450	190.58435	-263.45761	74.22270	91.77379	-178.24121	97.31895	162.79138	-36.13008	128.81337	225.42670	68.98484	136.04941	301.10812	-248.66267	159.17628	55.88517	-14.58039	68.96917	168.75867	
258	1.285	-383.42087	342.60019	309.65186				-427.86026	169.27989	322.69012	-294.50018	129.90822	191.27942	-262.15115	74.34570	92.79678	-176.49844	99.14705	163.26057	-34.74953	128.84155	225.91275	70.95577	135.78247	300.88327	-247.42061	158.99402	57.11413	-13.07437	69.63705	169.25096	
259	1.290	-382.86316	343.32227	310.18771				-427.15399	169.69525	322.92596	-293.98428	129.48837	192.44254	-260.84470	74.46868	93.81976	-175.36676	98.67133	163.97479	-33.31274	127.88566	226.26184	73.91795	136.40561	300.82095	-245.85226	160.25063	58.24207	-10.69697	70.33633	168.33568	
260	1.295	-382.86316	343.32227	310.18771				-427.20538	170.05266	322.75491	-293.46838	129.06854	193.60567	-258.87091	75.07082	94.70426	-172.30153	99.12260	164.58449	-30.55870	128.43715	226.24338	75.94979	135.69873	300.62140	-244.19115	160.05696	59.72987	-8.92951	68.97150	168.86313	
261	1.300	-382.86316	343.32227	310.18771				-427.20538	170.05266	322.75491	-293.11606	130.30569	193.88255	-257.70874	74.68729	95.89695	-170.91669	99.91419	165.05397	-29.07515	127.85431	226.12248	78.47268	136.40089	300.03342	-242.91083	159.86665	61.02060	-7.60072	69.15897	168.59482	
262	1.305	-382.86316	343.32227	310.18771				-427.20538	170.05266	322.75491	-291.52112	131.41275	193.89877	-256.77866	76.34231	96.77276	-170.21498	98.90435	165.85616	-26.80375	128.04659	225.97127	80.27938	135.69060	299.89731	-242.21605	159.79657	61.90274	-5.65654	69.66554	168.66711	
263	1.310	-383.00446	343.51251	310.37708				-427.20538	170.05266	322.75491	-291.64227	130.60564	195.99358	-255.26697	76.80175	96.67904	-167.65001	100.19478	166.55733	-24.34816	128.66788	225.36748	83.41725	135.91864	299.33118	-241.42769	160.33336	62.80444	-3.80963	69.01795	168.91208	
264	1.315	-383.50665	343.64923	310.19769				-427.20538	170.05266	322.75491	-290.74435	132.35954	196.46329	-253.75113	76.46294	97.98978	-165.52403	100.63213	168.81590	-22.38841	128.73331	225.62978	85.62338	136.05685	298.48077	-240.04224	160.43369	64.18320	-1.52249	69.78923	168.45584	
265	1.320	-383.36530	343.45901	310.00836				-427.30551	170.09276	322.31039	-290.74435	132.35954	196.46329	-252.23531	76.12412	99.30051	-164.84456	101.04929	168.99226	-19.75606	129.63031	225.15805	87.90160	136.70013	297.82443	-238.18892	160.01802	65.61353	-0.36017	69.90821	168.63681	
266	1.325	-384.05090	343.78152	310.20663				-427.30551	170.09276	322.31039	-288.66324	133.95123	197.13995	-251.50148	75.96012	100.17482	-162.39491	100.11213	168.75073	-17.69148	130.12155	225.82689	89.77065	135.75009	297.34348	-236.84758	160.65182	66.03176	1.20614	69.26184	168.66747	
267	1.330	-384.05090	343.78152	310.20663				-427.30551	170.09276	322.31039	-288.81976	131.37442	199.02681	-250.35657	76.20718	101.15075	-160.99445	100.45597	168.86549	-16.51554	129.51749	225.37175	92.74915	135.80084	296.35254	-235.64667	160.42276	66.99198	3.57961	69.52434	167.93541	
268	1.335	-383.50665	343.64923	310.19769				-426.76660	170.82695	322.82031	-287.14871	132.35628	199.52078	-249.21167	76.45424	102.12667	-160.90327	99.18202	169.45847	-14.54133	129.25369	225.31053	94.52608	135.91321	296.18652	-234.85593	159.23293	67.99493	3.81035	69.96191	167.64357	
269	1.340	-383.50665	343.64923	310.19769				-426.30630	170.71021	323.19086	-286.25430	133.59267	198.96169	-248.06676	76.70130	103.10260	-157.61214	100.69202	170.37738	-11.81291	129.81494	224.74547	97.45723	136.08293	294.98889	-233.92731	159.04492	68.77106	5.81912	69.16228	168.37923	
270	1.345	-383.84503	343.76123	309.82559				-426.30630	170.71021	323.19086	-284.51706	134.63330	199.82100	-246.92184	76.94836	104.07852	-156.25810	101.62095	170.37154	-9.86567	129.94841	224.33971	99.45008	136.16017	294.29230	-232.93275	158.77722	69.58215	8.22257	70.00281	167.26530	
271	1.350	-384.49982	343.92407	309.78909				-426.30630	170.71021	323.19086	-284.09277	134.66757	200.39526	-245.77696	77.19542	105.05445	-155.13171	100.55586	171.38051	-7.27122	129.78976	224.38078	101.58389	136.01135	293.36890	-231.85318	159.28305	70.43958	9.40898	69.01709	167.86345	
272	1.355	-383.77567	343.72626	310.05374				-426.03250	170.65862	322.98010	-284.73813	133.14601	201.89194	-244.63205	77.44248	106.03038	-153.19246	101.34427	171.78059	-6.31001	128.96251	224.73044	103.70561	136.12888	292.93640	-230.18858	159.06491	71.38314	10.87039	68.41666	167.62769	
273	1.360	-384.49982	343.92407	309.78909				-426.30630	170.71021	323.19086	-284.12173	134.04681	202.16286	-243.48714	77.68954	107.00630	-152.61182	100.85797	172.38152	-3.96256	129.65314	224.55435	105.93044	135.50638	292.57819	-229.47530	158.86833	72.41761	12.91104	69.58543	167.06784	
274	1.365	-384.49982	343.92407	309.78909				-426.03250	170.65862	322.98010	-283.58826	134.38329	202.32520	-241.77847	78.31312	107.53516	-149.21861	102.04543	172.84126	-2.70088	129.82457	224.61417	108.57021	136.03275	291.91046	-227.97777	159.18349	73.21733	13.85822	69.37061	166.80957	
